<svg width="30" height="29" viewBox="0 0 30 29" fill="none" xmlns="http://www.w3.org/2000/svg">
<g clip-path="url(#clip0)">
<path d="M29.1913 8.49299C29.1239 6.96647 28.8771 5.917 28.5235 5.00762C28.1587 4.04234 27.5974 3.17813 26.8621 2.4597C26.1437 1.73009 25.2738 1.16316 24.3197 0.804055C23.405 0.450433 22.3611 0.203577 20.8345 0.136272C19.2966 0.0632676 18.8084 0.0463867 14.9078 0.0463867C11.0072 0.0463867 10.519 0.0632676 8.98676 0.130572C7.46024 0.197877 6.41078 0.444952 5.50162 0.798355C4.53612 1.16316 3.6719 1.72439 2.95348 2.4597C2.22387 3.17813 1.65715 4.04804 1.29783 5.00214C0.944207 5.917 0.697351 6.96077 0.630047 8.48729C0.557042 10.0252 0.540161 10.5134 0.540161 14.414C0.540161 18.3146 0.557042 18.8028 0.624347 20.3351C0.691651 21.8616 0.938726 22.9111 1.29235 23.8204C1.65715 24.7857 2.22387 25.6499 2.95348 26.3684C3.6719 27.098 4.54182 27.6649 5.49592 28.024C6.41078 28.3776 7.45454 28.6245 8.98128 28.6918C10.5133 28.7593 11.0017 28.776 14.9023 28.776C18.8029 28.776 19.2911 28.7593 20.8234 28.6918C22.3499 28.6245 23.3993 28.3776 24.3085 28.024C26.2393 27.2775 27.7658 25.751 28.5123 23.8204C28.8657 22.9056 29.1128 21.8616 29.1801 20.3351C29.2474 18.8028 29.2643 18.3146 29.2643 14.414C29.2643 10.5134 29.2586 10.0252 29.1913 8.49299ZM26.6041 20.2228C26.5423 21.6259 26.3066 22.3836 26.1102 22.8887C25.6274 24.1403 24.6341 25.1336 23.3825 25.6164C22.8773 25.8128 22.1142 26.0485 20.7166 26.1101C19.2013 26.1776 18.7468 26.1943 14.9135 26.1943C11.0802 26.1943 10.62 26.1776 9.11019 26.1101C7.7071 26.0485 6.94943 25.8128 6.44432 25.6164C5.82148 25.3862 5.25454 25.0214 4.79437 24.5443C4.31732 24.0785 3.95252 23.5172 3.72232 22.8944C3.52589 22.3893 3.29022 21.6259 3.22861 20.2285C3.16109 18.7132 3.14443 18.2585 3.14443 14.4252C3.14443 10.5919 3.16109 10.1318 3.22861 8.62212C3.29022 7.21903 3.52589 6.46136 3.72232 5.95624C3.95252 5.33319 4.31732 4.76647 4.80007 4.30608C5.26572 3.82903 5.82696 3.46423 6.45002 3.23425C6.95513 3.03782 7.7185 2.80214 9.11589 2.74032C10.6312 2.67301 11.0859 2.65613 14.919 2.65613C18.758 2.65613 19.2124 2.67301 20.7223 2.74032C22.1254 2.80214 22.883 3.03782 23.3882 3.23425C24.011 3.46423 24.5779 3.82903 25.0381 4.30608C25.5152 4.77195 25.88 5.33319 26.1102 5.95624C26.3066 6.46136 26.5423 7.22451 26.6041 8.62212C26.6714 10.1375 26.6883 10.5919 26.6883 14.4252C26.6883 18.2585 26.6714 18.7075 26.6041 20.2228Z" fill="white"/>
<path d="M14.9078 7.03369C10.8334 7.03369 7.52759 10.3393 7.52759 14.4139C7.52759 18.4886 10.8334 21.7942 14.9078 21.7942C18.9825 21.7942 22.2881 18.4886 22.2881 14.4139C22.2881 10.3393 18.9825 7.03369 14.9078 7.03369ZM14.9078 19.2013C12.2646 19.2013 10.1205 17.0575 10.1205 14.4139C10.1205 11.7704 12.2646 9.62656 14.9078 9.62656C17.5513 9.62656 19.6952 11.7704 19.6952 14.4139C19.6952 17.0575 17.5513 19.2013 14.9078 19.2013V19.2013Z" fill="white"/>
<path d="M24.3031 6.74199C24.3031 7.69346 23.5316 8.46494 22.5799 8.46494C21.6284 8.46494 20.8569 7.69346 20.8569 6.74199C20.8569 5.7903 21.6284 5.01904 22.5799 5.01904C23.5316 5.01904 24.3031 5.7903 24.3031 6.74199V6.74199Z" fill="white"/>
</g>
<defs>
<clipPath id="clip0">
<rect width="28.7297" height="28.7297" fill="white" transform="translate(0.489746 0.0463867)"/>
</clipPath>
</defs>
</svg>
