<svg width="37" height="38" viewBox="0 0 37 38" fill="none" xmlns="http://www.w3.org/2000/svg">
<path d="M34.6456 17.5001L28.1259 10.9805C27.9654 10.82 27.7748 10.6926 27.565 10.6057C27.3553 10.5188 27.1305 10.4741 26.9034 10.4741C26.6764 10.4741 26.4516 10.5188 26.2418 10.6057C26.0321 10.6926 25.8415 10.82 25.681 10.9805C25.3568 11.3047 25.1746 11.7444 25.1746 12.2029C25.1746 12.6614 25.3568 13.1012 25.681 13.4254L29.2495 16.9938H10.3726C9.91414 16.9938 9.47442 17.1759 9.15021 17.5001C8.826 17.8244 8.64386 18.2641 8.64386 18.7226C8.64386 19.1811 8.826 19.6208 9.15021 19.945C9.47442 20.2692 9.91414 20.4514 10.3726 20.4514H29.2495L25.681 24.0198C25.3568 24.344 25.1746 24.7837 25.1746 25.2422C25.1746 25.7008 25.3568 26.1405 25.681 26.4647C26.0052 26.7889 26.4449 26.971 26.9035 26.971C27.362 26.971 27.8017 26.7889 28.1259 26.4647L34.6456 19.945C34.9698 19.6208 35.1519 19.181 35.1519 18.7225C35.1519 18.264 34.9698 17.8243 34.6456 17.5001Z" fill="white"/>
<path d="M21.898 28.5193C21.4395 28.5193 20.9998 28.7014 20.6755 29.0256C20.3513 29.3498 20.1692 29.7895 20.1692 30.2481V31.9768H5.18639V5.4688H20.1692V7.19759C20.1692 7.65609 20.3513 8.09581 20.6755 8.42002C20.9998 8.74423 21.4395 8.92637 21.898 8.92637C22.3565 8.92637 22.7962 8.74423 23.1204 8.42002C23.4446 8.09581 23.6268 7.65609 23.6268 7.19759V4.89254C23.6268 4.51416 23.5522 4.13949 23.4074 3.78991C23.2626 3.44033 23.0504 3.1227 22.7828 2.85515C22.5153 2.58759 22.1977 2.37536 21.8481 2.23056C21.4985 2.08576 21.1238 2.01123 20.7455 2.01123H4.61013C3.84596 2.01123 3.11309 2.3148 2.57274 2.85515C2.03239 3.3955 1.72882 4.12837 1.72882 4.89254V32.5531C1.72882 33.3173 2.03239 34.0501 2.57274 34.5905C3.11309 35.1308 3.84596 35.4344 4.61013 35.4344H20.7455C21.1238 35.4344 21.4985 35.3599 21.8481 35.2151C22.1977 35.0703 22.5153 34.858 22.7828 34.5905C23.0504 34.3229 23.2626 34.0053 23.4074 33.6557C23.5522 33.3062 23.6268 32.9315 23.6268 32.5531V30.2481C23.6268 29.7895 23.4446 29.3498 23.1204 29.0256C22.7962 28.7014 22.3565 28.5193 21.898 28.5193Z" fill="white"/>
</svg>
