<svg width="54" height="52" viewBox="0 0 54 52" fill="none" xmlns="http://www.w3.org/2000/svg">
<g clip-path="url(#clip0)">
<path d="M53.0527 48.6189L37.6566 33.5133C40.5768 29.9761 42.3346 25.4793 42.3346 20.5834C42.3346 9.23378 32.9233 0 21.3554 0C9.78747 0 0.376221 9.23378 0.376221 20.5834C0.376221 31.933 9.78757 41.1668 21.3555 41.1668C26.3455 41.1668 30.9288 39.4421 34.534 36.5771L49.9301 51.6827C50.3614 52.1057 51.0604 52.1057 51.4917 51.6827L53.0528 50.151C53.484 49.7278 53.484 49.0419 53.0527 48.6189ZM21.3555 36.8334C12.2224 36.8334 4.79293 29.5442 4.79293 20.5834C4.79293 11.6226 12.2224 4.33338 21.3555 4.33338C30.4886 4.33338 37.918 11.6226 37.918 20.5834C37.918 29.5442 30.4886 36.8334 21.3555 36.8334Z" fill="white"/>
</g>
<defs>
<clipPath id="clip0">
<rect width="53" height="52" fill="white" transform="translate(0.376221)"/>
</clipPath>
</defs>
</svg>
