<svg width="28" height="25" viewBox="0 0 28 25" fill="none" xmlns="http://www.w3.org/2000/svg">
<path d="M8.91269 16.6021H23.3683C23.7262 16.6021 24.0402 16.3654 24.1371 16.0216L27.3378 4.81979C27.4065 4.57829 27.3594 4.31888 27.208 4.11823C27.0563 3.9182 26.8204 3.80006 26.5687 3.80006H7.06555L6.4936 1.22636C6.41233 0.859854 6.08729 0.599609 5.71223 0.599609H0.858218C0.416073 0.599609 0.0581055 0.957576 0.0581055 1.39972C0.0581055 1.84208 0.416073 2.19983 0.858218 2.19983H5.07006L7.95943 15.2017C7.10931 15.5713 6.51235 16.4175 6.51235 17.4022C6.51235 18.7257 7.58917 19.8025 8.91269 19.8025H23.3683C23.8106 19.8025 24.1684 19.4448 24.1684 19.0024C24.1684 18.5603 23.8106 18.2023 23.3683 18.2023H8.91269C8.472 18.2023 8.11257 17.8437 8.11257 17.4022C8.11257 16.9607 8.472 16.6021 8.91269 16.6021Z" fill="white"/>
<path d="M8.11255 22.2026C8.11255 23.5263 9.18937 24.6029 10.5131 24.6029C11.8366 24.6029 12.9134 23.5263 12.9134 22.2026C12.9134 20.8791 11.8366 19.8022 10.5131 19.8022C9.18937 19.8022 8.11255 20.8791 8.11255 22.2026Z" fill="white"/>
<path d="M19.3677 22.2026C19.3677 23.5263 20.4445 24.6029 21.768 24.6029C23.0917 24.6029 24.1684 23.5263 24.1684 22.2026C24.1684 20.8791 23.0917 19.8022 21.768 19.8022C20.4445 19.8022 19.3677 20.8791 19.3677 22.2026Z" fill="white"/>
</svg>
