<svg width="33" height="33" viewBox="0 0 33 33" fill="none" xmlns="http://www.w3.org/2000/svg">
<g clip-path="url(#clip0)">
<path d="M32.5994 6.80681C31.4053 7.33059 30.133 7.67778 28.8064 7.84636C30.1711 7.03157 31.2126 5.7512 31.7023 4.20793C30.43 4.96652 29.0252 5.50235 27.5281 5.80137C26.3199 4.51498 24.5981 3.71826 22.7196 3.71826C19.0752 3.71826 16.1412 6.67636 16.1412 10.3027C16.1412 10.8245 16.1853 11.3262 16.2937 11.8039C10.821 11.537 5.97849 8.914 2.72538 4.91836C2.15744 5.90372 1.8243 7.03157 1.8243 8.24572C1.8243 10.5255 2.99831 12.5464 4.74829 13.7164C3.69067 13.6963 2.65313 13.3893 1.77413 12.9056C1.77413 12.9257 1.77413 12.9518 1.77413 12.9779C1.77413 16.1768 4.05592 18.8339 7.04814 19.446C6.51231 19.5925 5.92831 19.6627 5.32225 19.6627C4.90081 19.6627 4.47535 19.6386 4.07599 19.5503C4.9289 22.1572 7.34917 24.0738 10.227 24.136C7.98735 25.888 5.14364 26.9436 2.06512 26.9436C1.52528 26.9436 1.00751 26.9195 0.489746 26.8532C3.4057 28.7337 6.8615 29.8073 10.5882 29.8073C22.7016 29.8073 29.3242 19.7731 29.3242 11.0754C29.3242 10.7844 29.3142 10.5034 29.3001 10.2245C30.6066 9.29731 31.7043 8.13936 32.5994 6.80681Z" fill="white"/>
</g>
<defs>
<clipPath id="clip0">
<rect width="32.1096" height="32.1096" fill="white" transform="translate(0.489746 0.708008)"/>
</clipPath>
</defs>
</svg>
