<svg width="37" height="37" viewBox="0 0 37 37" fill="none" xmlns="http://www.w3.org/2000/svg">
<path d="M18.5 0C13.1206 0 8.74414 4.37648 8.74414 9.75586C8.74414 15.1352 13.1206 19.5117 18.5 19.5117C23.8794 19.5117 28.2559 15.1352 28.2559 9.75586C28.2559 4.37648 23.8794 0 18.5 0Z" fill="white"/>
<path d="M30.6382 25.8852C27.9672 23.1732 24.4264 21.6797 20.668 21.6797H16.332C12.5736 21.6797 9.03277 23.1732 6.36183 25.8852C3.70397 28.5839 2.24023 32.1461 2.24023 35.916C2.24023 36.5147 2.72557 37 3.32422 37H33.6758C34.2744 37 34.7598 36.5147 34.7598 35.916C34.7598 32.1461 33.296 28.5839 30.6382 25.8852Z" fill="white"/>
</svg>
